<?xml version="1.0" encoding="UTF-8" standalone="no"?>
<svg width="355px" height="149px" viewBox="0 0 355 149" version="1.1" xmlns="http://www.w3.org/2000/svg" xmlns:xlink="http://www.w3.org/1999/xlink" xmlns:sketch="http://www.bohemiancoding.com/sketch/ns">
    <!-- Generator: Sketch 3.5.1 (25234) - http://www.bohemiancoding.com/sketch -->
    <title>Artboard 1</title>
    <desc>Created with Sketch.</desc>
    <defs></defs>
    <g id="Page-1" stroke="none" stroke-width="1" fill="none" fill-rule="evenodd" sketch:type="MSPage">
        <g id="Artboard-1" sketch:type="MSArtboardGroup" fill="#FFFFFF">
            <path d="M114.576,46.2719 C115.75,59.6839 110.451,82.0019 100.452,91.6789 C98.199,93.8589 95.655,95.6519 92.923,97.1119 L87.865,88.3909 C85.884,85.0209 83.92,82.9159 81.907,81.6029 C85.159,79.5649 87.391,76.5909 89.174,72.4459 C91.259,67.5969 94.105,56.2549 93.395,50.8879 C92.614,44.9889 88.631,40.2659 79.359,39.6999 C75.267,39.4509 71.025,39.7539 67.066,40.7629 C63.525,41.6649 60.547,43.3129 58.412,45.3369 C53.368,50.0889 50.136,61.9909 49.716,68.8119 C49.424,73.5579 50.106,77.1579 51.756,79.6119 C54.745,84.0579 59.52,84.5019 64.252,84.4249 L67.843,84.4269 C73.546,84.4269 78.33,85.0399 83.224,93.3629 L89.459,104.1119 C92.946,109.8139 93.555,111.5119 102.082,111.5549 L121.248,111.5549 L117.425,129.9999 L95.816,129.9999 C89.834,129.9999 81.627,129.1149 76.733,120.7909 L69.424,108.1949 C66.523,103.5999 66.668,102.7409 61.548,102.4779 C55.814,102.1829 49.512,101.4609 45.955,100.0959 C37.173,96.7269 30.189,90.1419 29.157,78.3489 C28.898,75.3919 28.96,72.2299 29.34,68.8739 C29.765,65.1139 30.706,60.5679 31.615,56.8799 C34.061,46.9609 37.425,39.0049 43.62,33.0099 C51.505,25.3799 62.61,22.4149 73.196,22.0279 C77.366,21.8749 84.533,22.0719 90.496,22.8899 C103.58,24.6849 113.35,32.2709 114.576,46.2719" id="Fill-1" sketch:type="MSShapeGroup"></path>
            <path d="M312.2416,39.5802 C314.3916,39.5802 316.4176,39.6892 318.3146,39.9042 C319.3926,40.0262 320.4246,40.1832 321.4106,40.3772 L318.3466,55.6152 C312.1936,53.6872 302.0896,54.5382 299.7406,62.1012 C299.4956,62.8912 299.2836,63.7262 299.1096,64.5992 L299.1136,64.6132 L292.1456,98.0152 L291.8816,99.2802 L290.3906,99.2802 L274.9696,99.2802 L272.7176,99.2802 L273.1146,97.3582 L280.7956,60.2272 L280.7986,60.2152 C281.0856,58.9142 281.4636,57.6102 281.9356,56.3112 C282.3906,55.0592 282.9326,53.8272 283.5646,52.6242 L283.5646,52.6242 C284.2246,51.3472 285.0296,50.1552 285.9696,49.0482 C286.9146,47.9382 288.0076,46.8962 289.2386,45.9242 L289.2486,45.9202 C290.4976,44.9432 291.9096,44.0672 293.4806,43.2932 C295.0416,42.5232 296.7526,41.8532 298.6096,41.2822 L298.6246,41.2792 C300.4986,40.7152 302.5866,40.2872 304.8866,40.0032 C307.1526,39.7232 309.6046,39.5802 312.2416,39.5802 L312.2416,39.5802 Z M180.7336,97.4592 L192.2366,42.3452 L192.5006,41.0802 L193.9916,41.0802 L209.4356,41.0802 L211.6906,41.0802 L211.2896,43.0032 L199.7626,98.1172 L199.4996,99.3822 L198.0086,99.3822 L182.5876,99.3822 L180.3326,99.3822 L180.7336,97.4592 Z M143.7406,100.7802 C141.5906,100.7802 139.5646,100.6722 137.6676,100.4572 C135.7706,100.2422 134.0136,99.9162 132.4016,99.4812 C130.7696,99.0392 129.2886,98.5092 127.9536,97.8922 L127.9546,97.8912 C126.5826,97.2572 125.3576,96.5322 124.2766,95.7202 C123.1816,94.8982 122.2226,93.9892 121.4036,92.9952 C120.5816,91.9972 119.9026,90.9192 119.3706,89.7612 L119.3746,89.7592 C118.8506,88.6282 118.4486,87.4482 118.1696,86.2272 C117.8906,84.9992 117.7306,83.7232 117.6906,82.4072 L117.6926,82.4002 C117.6796,81.9922 117.6846,81.5342 117.7106,81.0202 C117.7356,80.5312 117.7786,80.0172 117.8436,79.4792 C117.9186,78.8472 118.0076,78.2212 118.1076,77.6072 C118.1946,77.0662 118.3226,76.3562 118.4976,75.4562 L118.4936,75.4432 L125.3156,42.3512 L125.5776,41.0802 L127.0726,41.0802 L142.5156,41.0802 L144.7696,41.0802 L144.3706,43.0032 L137.4056,76.5222 L137.4046,76.5282 C137.3046,76.9912 137.2266,77.4022 137.1746,77.7542 C137.1226,78.1082 137.0856,78.4692 137.0636,78.8402 L137.0606,78.8782 C137.0316,79.2072 137.0126,79.5542 137.0006,79.9202 L136.9926,79.9202 C136.9846,80.1902 136.9846,80.4992 136.9956,80.8542 C137.0256,81.8172 137.1956,82.6542 137.5036,83.3662 C137.7896,84.0302 138.2096,84.6052 138.7626,85.0942 L138.7616,85.0952 C139.2906,85.5422 139.9856,85.8852 140.8516,86.1202 C141.8376,86.3892 143.0476,86.5232 144.4876,86.5232 C145.5256,86.5232 146.4836,86.4632 147.3526,86.3412 C148.2016,86.2222 148.9716,86.0462 149.6546,85.8162 L149.6546,85.8182 C150.3226,85.5832 150.9506,85.2952 151.5346,84.9532 C152.1056,84.6172 152.6236,84.2362 153.0826,83.8092 C153.5506,83.3632 153.9736,82.8692 154.3536,82.3262 C154.7446,81.7682 155.0946,81.1522 155.4046,80.4802 L155.4066,80.4812 C155.7216,79.7742 156.0016,79.0312 156.2416,78.2592 C156.4866,77.4702 156.6986,76.6352 156.8726,75.7612 L156.8686,75.7472 L163.8366,42.3452 L164.1006,41.0802 L165.5916,41.0802 L181.0126,41.0802 L183.2646,41.0802 L182.8676,43.0032 L175.1876,80.1332 L175.1836,80.1452 C174.8966,81.4472 174.5196,82.7502 174.0466,84.0492 C173.5916,85.3012 173.0496,86.5332 172.4176,87.7372 L172.4176,87.7362 C171.7576,89.0142 170.9536,90.2052 170.0126,91.3122 C169.0686,92.4232 167.9746,93.4642 166.7436,94.4362 L166.7336,94.4412 C165.4846,95.4172 164.0726,96.2932 162.5016,97.0682 C160.9406,97.8382 159.2296,98.5072 157.3736,99.0782 L157.3576,99.0812 C155.4836,99.6462 153.3966,100.0732 151.0956,100.3572 C148.8296,100.6372 146.3786,100.7802 143.7406,100.7802 L143.7406,100.7802 Z M226.8226,99.3252 L211.4006,99.3252 L209.1486,99.3252 L209.5466,97.4032 L226.6446,15.0222 L226.9066,13.7582 L228.3996,13.7582 L243.8196,13.7582 L246.0716,13.7582 L245.6746,15.6802 L237.2926,56.1312 L237.2866,56.1312 C237.1096,57.0072 236.9486,57.7642 236.8126,58.3732 C236.7226,58.7762 236.6226,59.2082 236.5136,59.6692 L255.7016,41.5242 L256.2316,41.0242 L257.0176,41.0242 L275.9206,41.0242 L280.2456,41.0242 L277.3216,43.7262 L250.0106,68.9642 C251.8256,73.6642 255.8166,84.4202 263.2426,86.1182 C265.2846,86.5842 266.7026,86.0482 268.7816,85.6472 L268.2876,88.0532 L266.0146,99.1032 L265.7916,100.1862 L264.5326,100.3542 C263.6406,100.4742 262.7506,100.5662 261.8626,100.6282 C260.9646,100.6912 260.1086,100.7232 259.2906,100.7232 C257.2636,100.7232 255.4026,100.5712 253.7116,100.2682 C251.9756,99.9582 250.4076,99.4852 249.0106,98.8532 L249.0116,98.8512 C247.6606,98.2482 246.4226,97.5542 245.2996,96.7772 C244.1566,95.9852 243.1216,95.0982 242.1976,94.1252 L242.1806,94.1082 C241.2966,93.1552 240.5086,92.1492 239.8156,91.0932 C239.1166,90.0292 238.5166,88.9222 238.0176,87.7722 L238.0236,87.7702 C237.5096,86.5962 237.0516,85.5132 236.6566,84.5302 C236.2326,83.4772 235.8376,82.4412 235.4726,81.4332 L235.4746,81.4272 C235.1306,80.4682 234.7676,79.5012 234.3976,78.5462 C234.0496,77.6452 233.6996,76.7682 233.3606,75.9302 L233.2456,75.6542 L228.5776,98.0602 L228.3136,99.3252 L226.8226,99.3252 Z M200.9306,13.9372 L214.4346,13.9372 C216.2096,13.9372 217.3636,15.3892 217.0006,17.1642 L214.6866,28.4572 C214.3226,30.2312 212.5736,31.6832 210.7986,31.6832 L197.2946,31.6832 C195.5196,31.6832 194.3646,30.2312 194.7286,28.4572 L197.0426,17.1642 C197.4066,15.3892 199.1556,13.9372 200.9306,13.9372 L200.9306,13.9372 Z" id="Fill-3" sketch:type="MSShapeGroup"></path>
        </g>
    </g>
</svg>